/* XPM */
static char * run_xpm[] = {
"32 32 4 1",
" 	c #eeeeee",
".	c #747474",
"X	c #c4c4c4",
"o	c #000000",
"          .          .          ",
" XXXXXXXXX. XXXXXXXXX..oo.XXXXXX",
" XXXXXXXXX. XXXXXXXXX.oooo.XXXXX",
" XXXXXXXXX. XXXXXXXX.ooooo..XXXX",
" XXXXXXXXX. XXXXXXXX.oooooo.XXXX",
" XXXXXXXXX. XXXXXXXX.ooooo..XXXX",
" XXXXXXXXX. XXoooooooooooo.XXXXX",
" XXXXXXXXX. Xoooooooooooo..XXXXX",
" XXXXXXXXX. ooooooooooo....XXXXX",
" XXXXXXXXX.ooo...ooooo...XXXXXXX",
"..........ooo...ooooooo.........",
"        oooo.. ooooooooo        ",
" XXXXXXXooo..Xoooooo.ooooXXXXXXX",
" XXXXXXXoo...ooooooo..oooooooo.X",
" XXXXXXX... ooooooo....ooooooo.X",
" XXXXXXXXX..oooooo..........o..X",
" XXXXXXXXX.oooooo...X. X.X....XX",
" XXXXXXXXXoooooooo.XX. XXXXXXXXX",
" XXXXXXXXooooooooooXX. XXXXXXXXX",
" XXXXXXXooooo..oooooX. XXXXXXXXX",
" XXXXXXooooo..XXooooo. XXXXXXXXX",
"......ooooo.......ooo...........",
"     oooo...     oooo.          ",
" XXXoooo... XXXXoooo.. XXXXXXXXX",
" XXoooo..X. XXXoooo... XXXXXXXXX",
" Xoooo..XX. XXoooo..X. XXXXXXXXX",
" oooo..XXX. Xoooo..XX. XXXXXXXXX",
" Xooo..XXX. XXooo..XX. XXXXXXXXX",
" XXooo..XX. XXXooo..X. XXXXXXXXX",
" XXXoo..XX. XXXXoo..X. XXXXXXXXX",
" XXXX..XXX. XXXXX..XX. XXXXXXXXX",
" XXXXXXXXX. XXXXXXXXX. XXXXXXXXX"};
