/* XPM */
static char * stop_xpm[] = {
"32 32 7 1",
" 	c #eeeeee",
".	c #747474",
"X	c #c4c4c4",
"o	c #ff0000",
"O	c #000000",
"+	c #ffffff",
"@	c #454545",
"          .          .          ",
" XXXX.ooooooo.XXXXXXX..OO.XXXXXX",
" XXX.o+++++++o.XXXXXX.OOOO.XXXXX",
" XX.o+ooooooo+o.XXXX.OOOOO..XXXX",
" X.o+ooooooooo+o.XXX.OOOOOO.XXXX",
" .o+ooooooooooo+o.XX.OOOOO..XXXX",
" o+ooo++ooo++ooo+o.OOOOOOO.XXXXX",
" o+ooo+++o+++@oo+oOOOOOOO..XXXXX",
" o+oooo+++++@ooo+oOOOOO....XXXXX",
" o+ooooo+++@oooo+oOOOO...XXXXXXX",
".o+oooo+++++oooo+oOOOOO.........",
" o+ooo+++@+++ooo+oOOOOOO        ",
" o+ooo++@oo++@oo+oOO.OOOOXXXXXXX",
" .o+ooo@oooo@oo+oOOO..OOOOOOOO.X",
" X.o+ooooooooo+oOOO....OOOOOOO.X",
" XX.o+ooooooo+oOOO..........O..X",
" XXX.o+++++++oOOO...X. X.X....XX",
" XXXX.oooooooOOOOO.XX. XXXXXXXXX",
" XXXXX...OOOOOOOOOOXX. XXXXXXXXX",
" XXXXXXXOOOOO..OOOOOX. XXXXXXXXX",
" XXXXXXOOOOO..XXOOOOO. XXXXXXXXX",
"......OOOOO.......OOO...........",
"     OOOO...     OOOO.          ",
" XXXOOOO... XXXXOOOO.. XXXXXXXXX",
" XXOOOO..X. XXXOOOO... XXXXXXXXX",
" XOOOO..XX. XXOOOO..X. XXXXXXXXX",
" OOOO..XXX. XOOOO..XX. XXXXXXXXX",
" XOOO..XXX. XXOOO..XX. XXXXXXXXX",
" XXOOO..XX. XXXOOO..X. XXXXXXXXX",
" XXXOO..XX. XXXXOO..X. XXXXXXXXX",
" XXXX..XXX. XXXXX..XX. XXXXXXXXX",
" XXXXXXXXX. XXXXXXXXX. XXXXXXXXX"};
