/* XPM */
static char * scratch[] = {
"32 32 3 1",
" 	c #eeeeee",
".	c #747474",
"X	c #c4c4c4",
"          .          .          ",
" XXXXXXXXX. XXXXXXXXX. XXXXXXXXX",
" XXXXXXXXX. XXXXXXXXX. XXXXXXXXX",
" XXXXXXXXX. XXXXXXXXX. XXXXXXXXX",
" XXXXXXXXX. XXXXXXXXX. XXXXXXXXX",
" XXXXXXXXX. XXXXXXXXX. XXXXXXXXX",
" XXXXXXXXX. XXXXXXXXX. XXXXXXXXX",
" XXXXXXXXX. XXXXXXXXX. XXXXXXXXX",
" XXXXXXXXX. XXXXXXXXX. XXXXXXXXX",
" XXXXXXXXX. XXXXXXXXX. XXXXXXXXX",
"................................",
"          .          .          ",
" XXXXXXXXX. XXXXXXXXX. XXXXXXXXX",
" XXXXXXXXX. XXXXXXXXX. XXXXXXXXX",
" XXXXXXXXX. XXXXXXXXX. XXXXXXXXX",
" XXXXXXXXX. XXXXXXXXX. XXXXXXXXX",
" XXXXXXXXX. XXXXXXXXX. XXXXXXXXX",
" XXXXXXXXX. XXXXXXXXX. XXXXXXXXX",
" XXXXXXXXX. XXXXXXXXX. XXXXXXXXX",
" XXXXXXXXX. XXXXXXXXX. XXXXXXXXX",
" XXXXXXXXX. XXXXXXXXX. XXXXXXXXX",
"................................",
"          .          .          ",
" XXXXXXXXX. XXXXXXXXX. XXXXXXXXX",
" XXXXXXXXX. XXXXXXXXX. XXXXXXXXX",
" XXXXXXXXX. XXXXXXXXX. XXXXXXXXX",
" XXXXXXXXX. XXXXXXXXX. XXXXXXXXX",
" XXXXXXXXX. XXXXXXXXX. XXXXXXXXX",
" XXXXXXXXX. XXXXXXXXX. XXXXXXXXX",
" XXXXXXXXX. XXXXXXXXX. XXXXXXXXX",
" XXXXXXXXX. XXXXXXXXX. XXXXXXXXX",
" XXXXXXXXX. XXXXXXXXX. XXXXXXXXX"};
